<svg width="110" height="110" viewBox="0 0 110 110" fill="none" xmlns="http://www.w3.org/2000/svg">
<g filter="url(#filter0_d)">
<path fill-rule="evenodd" clip-rule="evenodd" d="M50 5.99994H59.9999C76.5685 5.99994 89.9999 19.4311 89.9999 35.9999V45.9999C89.9999 62.5682 76.5685 75.9998 59.9999 75.9998H50C33.4315 75.9998 19.9999 62.5682 19.9999 45.9999V35.9999C19.9999 19.4311 33.4315 5.99994 50 5.99994Z" fill="white"/>
</g>
<path d="M47.09 54.3C45.41 54.3 43.99 53.84 42.83 52.92C41.69 51.98 40.83 50.7 40.25 49.08C39.67 47.46 39.38 45.6 39.38 43.5C39.38 41.4 39.67 39.54 40.25 37.92C40.83 36.3 41.69 35.03 42.83 34.11C43.99 33.17 45.41 32.7 47.09 32.7C48.79 32.7 50.21 33.17 51.35 34.11C52.49 35.03 53.35 36.3 53.93 37.92C54.53 39.54 54.83 41.4 54.83 43.5C54.83 45.6 54.53 47.46 53.93 49.08C53.35 50.7 52.49 51.98 51.35 52.92C50.21 53.84 48.79 54.3 47.09 54.3ZM47.09 51.36C48.53 51.36 49.65 50.68 50.45 49.32C51.27 47.96 51.68 46.02 51.68 43.5C51.68 40.98 51.27 39.04 50.45 37.68C49.65 36.32 48.53 35.64 47.09 35.64C45.65 35.64 44.52 36.32 43.7 37.68C42.9 39.04 42.5 40.98 42.5 43.5C42.5 46.02 42.9 47.96 43.7 49.32C44.52 50.68 45.65 51.36 47.09 51.36ZM71.7027 50.88V54H59.0127L58.0227 51.54L64.4427 44.31C65.2627 43.39 66.0127 42.47 66.6927 41.55C67.3727 40.63 67.7127 39.69 67.7127 38.73C67.7127 37.73 67.4227 36.98 66.8427 36.48C66.2627 35.96 65.5027 35.7 64.5627 35.7C64.1027 35.7 63.5927 35.84 63.0327 36.12C62.4727 36.4 61.9427 36.84 61.4427 37.44C60.9427 38.04 60.5427 38.83 60.2427 39.81L57.7527 38.25C58.2927 36.39 59.2227 35 60.5427 34.08C61.8827 33.16 63.3527 32.7 64.9527 32.7C66.0927 32.7 67.1227 32.94 68.0427 33.42C68.9627 33.88 69.6927 34.54 70.2327 35.4C70.7727 36.26 71.0427 37.29 71.0427 38.49C71.0427 39.87 70.6227 41.24 69.7827 42.6C68.9627 43.94 67.9527 45.27 66.7527 46.59L62.8227 50.88H71.7027Z" fill="#0F2137"/>
<defs>
<filter id="filter0_d" x="0" y="-6.10352e-05" width="110" height="110" filterUnits="userSpaceOnUse" color-interpolation-filters="sRGB">
<feFlood flood-opacity="0" result="BackgroundImageFix"/>
<feColorMatrix in="SourceAlpha" type="matrix" values="0 0 0 0 0 0 0 0 0 0 0 0 0 0 0 0 0 0 127 0"/>
<feOffset dy="14"/>
<feGaussianBlur stdDeviation="10"/>
<feColorMatrix type="matrix" values="0 0 0 0 0.296285 0 0 0 0 0.468577 0 0 0 0 0.670833 0 0 0 0.1 0"/>
<feBlend mode="normal" in2="BackgroundImageFix" result="effect1_dropShadow"/>
<feBlend mode="normal" in="SourceGraphic" in2="effect1_dropShadow" result="shape"/>
</filter>
</defs>
</svg>
