<svg width="110" height="110" viewBox="0 0 110 110" fill="none" xmlns="http://www.w3.org/2000/svg">
<g filter="url(#filter0_d)">
<path fill-rule="evenodd" clip-rule="evenodd" d="M50 5.99994H59.9999C76.5685 5.99994 89.9999 19.4311 89.9999 35.9999V45.9999C89.9999 62.5682 76.5685 75.9998 59.9999 75.9998H50C33.4315 75.9998 19.9999 62.5682 19.9999 45.9999V35.9999C19.9999 19.4311 33.4315 5.99994 50 5.99994Z" fill="white"/>
</g>
<path d="M47.09 54.3C45.41 54.3 43.99 53.84 42.83 52.92C41.69 51.98 40.83 50.7 40.25 49.08C39.67 47.46 39.38 45.6 39.38 43.5C39.38 41.4 39.67 39.54 40.25 37.92C40.83 36.3 41.69 35.03 42.83 34.11C43.99 33.17 45.41 32.7 47.09 32.7C48.79 32.7 50.21 33.17 51.35 34.11C52.49 35.03 53.35 36.3 53.93 37.92C54.53 39.54 54.83 41.4 54.83 43.5C54.83 45.6 54.53 47.46 53.93 49.08C53.35 50.7 52.49 51.98 51.35 52.92C50.21 53.84 48.79 54.3 47.09 54.3ZM47.09 51.36C48.53 51.36 49.65 50.68 50.45 49.32C51.27 47.96 51.68 46.02 51.68 43.5C51.68 40.98 51.27 39.04 50.45 37.68C49.65 36.32 48.53 35.64 47.09 35.64C45.65 35.64 44.52 36.32 43.7 37.68C42.9 39.04 42.5 40.98 42.5 43.5C42.5 46.02 42.9 47.96 43.7 49.32C44.52 50.68 45.65 51.36 47.09 51.36ZM59.3427 48.27C59.6427 48.71 60.0027 49.18 60.4227 49.68C60.8627 50.18 61.3727 50.6 61.9527 50.94C62.5527 51.28 63.2327 51.45 63.9927 51.45C64.5927 51.45 65.1927 51.3 65.7927 51C66.3927 50.68 66.8927 50.22 67.2927 49.62C67.7127 49 67.9227 48.25 67.9227 47.37C67.9227 46.47 67.7527 45.75 67.4127 45.21C67.0927 44.67 66.6627 44.28 66.1227 44.04C65.5827 43.8 64.9927 43.68 64.3527 43.68C63.7327 43.68 63.1027 43.78 62.4627 43.98C61.8427 44.16 61.2627 44.36 60.7227 44.58L59.8227 42.21L65.4627 36H57.9927V33H70.0227L70.6227 34.2L64.7427 40.71C65.9027 40.71 66.9527 41 67.8927 41.58C68.8527 42.14 69.6127 42.91 70.1727 43.89C70.7527 44.87 71.0427 45.97 71.0427 47.19C71.0427 48.63 70.6927 49.89 69.9927 50.97C69.3127 52.03 68.4127 52.85 67.2927 53.43C66.1927 54.01 65.0127 54.3 63.7527 54.3C62.5727 54.3 61.5527 54.11 60.6927 53.73C59.8527 53.33 59.1227 52.79 58.5027 52.11C57.8827 51.43 57.3227 50.68 56.8227 49.86L59.3427 48.27Z" fill="#0F2137"/>
<defs>
<filter id="filter0_d" x="0" y="-6.10352e-05" width="110" height="110" filterUnits="userSpaceOnUse" color-interpolation-filters="sRGB">
<feFlood flood-opacity="0" result="BackgroundImageFix"/>
<feColorMatrix in="SourceAlpha" type="matrix" values="0 0 0 0 0 0 0 0 0 0 0 0 0 0 0 0 0 0 127 0"/>
<feOffset dy="14"/>
<feGaussianBlur stdDeviation="10"/>
<feColorMatrix type="matrix" values="0 0 0 0 0.296285 0 0 0 0 0.468577 0 0 0 0 0.670833 0 0 0 0.1 0"/>
<feBlend mode="normal" in2="BackgroundImageFix" result="effect1_dropShadow"/>
<feBlend mode="normal" in="SourceGraphic" in2="effect1_dropShadow" result="shape"/>
</filter>
</defs>
</svg>
