<svg width="1266" height="438" viewBox="0 0 1266 438" fill="none" xmlns="http://www.w3.org/2000/svg">
<path d="M1033.44 323.785C1030.76 335.999 1025.36 347.479 1017.84 356.948C1011.44 365.035 1003.24 371.941 993.982 377.119L996.676 380.201C1006.2 374.714 1014.42 367.711 1020.98 359.451C1028.88 349.498 1034.54 337.469 1037.36 324.656C1040.18 311.844 1040.07 298.55 1037.06 286.194C1036.22 282.713 1035.14 279.33 1033.86 276.047C1042.25 259.886 1046.1 242.035 1048.95 225.007C1049.65 220.866 1050.3 216.637 1050.93 212.562C1053.25 197.664 1055.66 182.276 1060.37 167.807C1065.7 151.484 1074.37 135.81 1085.46 122.477C1096.86 108.769 1110.35 97.8045 1125.55 89.8984C1131.79 86.6676 1138.31 83.9648 1144.94 81.8499L1142.09 78.5879C1135.75 80.7368 1129.64 83.2971 1123.72 86.3796C1114.45 91.1901 1105.79 97.1165 1097.86 104.054C1092.36 108.863 1087.19 114.175 1082.39 119.936C1070.99 133.644 1062.06 149.782 1056.58 166.59C1051.77 181.349 1049.33 196.905 1046.99 211.944C1046.37 216.019 1045.7 220.233 1045 224.346C1042.37 240.015 1038.9 256.336 1031.78 271.237C1026.09 259.182 1017.52 249.169 1007.08 242.68C999.335 237.858 990.398 235.036 981.237 234.505C971.737 233.952 962.649 235.93 954.946 240.251C947.054 244.659 940.631 251.839 936.802 260.439C932.886 269.273 932.165 278.789 934.739 287.254C937.581 296.599 944.385 304.654 953.894 309.92C962.885 314.896 973.712 316.968 983.623 315.597C993.22 314.261 1002.44 310.283 1010.98 303.797C1018.72 297.935 1025.61 290.136 1030.91 281.253C1031.02 281.048 1031.15 280.859 1031.26 280.654C1031.99 282.754 1032.61 284.918 1033.14 287.105C1036.03 298.901 1036.13 311.571 1033.44 323.785ZM1027.51 279.213C1022.46 287.66 1015.91 295.059 1008.58 300.621C1000.57 306.691 991.992 310.401 983.081 311.641C974.026 312.9 964.094 311.002 955.854 306.43C947.259 301.664 941.121 294.432 938.58 286.097C933.892 270.728 941.957 252.112 956.921 243.723C963.948 239.781 972.289 237.979 981.027 238.481C989.525 238.982 997.798 241.589 1004.98 246.048C1015.58 252.618 1024.14 263.14 1029.45 275.792C1028.84 276.968 1028.18 278.098 1027.51 279.213Z" fill="#DAE2E8"/>
<path d="M961.51 397.57L1012.92 394.275L1002.29 383.266L973.354 392.369L998.369 379.201L998.359 379.191L998.372 379.203L1003.73 368.059L992.412 373.03L984.863 365.209L961.51 397.57Z" fill="#DAE2E8"/>
<path d="M234.058 327.27C236.22 339.587 241.12 351.287 248.233 361.068C254.28 369.421 262.18 376.67 271.21 382.238L268.387 385.202C259.109 379.315 251.193 371.968 244.986 363.435C237.522 353.154 232.382 340.896 230.107 327.974C227.833 315.052 228.515 301.776 232.047 289.559C233.037 286.117 234.256 282.783 235.674 279.557C227.99 263.054 224.9 245.054 222.778 227.921C222.254 223.754 221.784 219.501 221.332 215.403C219.643 200.419 217.9 184.942 213.804 170.286C209.183 153.75 201.185 137.721 190.67 123.927C179.864 109.746 166.863 98.2161 152.013 89.6689C145.913 86.1749 139.515 83.1966 132.976 80.8006L135.964 77.6632C142.208 80.0805 148.206 82.8992 153.992 86.2314C163.042 91.4325 171.44 97.7228 179.072 104.992C184.362 110.031 189.296 115.559 193.846 121.52C204.652 135.701 212.888 152.205 217.648 169.232C221.821 184.183 223.597 199.828 225.289 214.953C225.741 219.051 226.225 223.29 226.748 227.428C228.711 243.196 231.48 259.65 237.961 274.841C244.158 263.04 253.146 253.401 263.86 247.363C271.8 242.876 280.85 240.438 290.025 240.298C299.539 240.15 308.535 242.514 316.046 247.16C323.744 251.9 329.854 259.347 333.314 268.102C336.849 277.096 337.164 286.634 334.231 294.981C330.993 304.196 323.852 311.954 314.127 316.81C304.932 321.398 294.027 323.007 284.183 321.214C274.652 319.47 265.608 315.102 257.351 308.258C249.873 302.072 243.323 293.986 238.401 284.885C238.297 284.676 238.18 284.481 238.076 284.271C237.264 286.339 236.553 288.474 235.928 290.636C232.538 302.298 231.897 314.953 234.058 327.27ZM241.886 282.992C246.571 291.647 252.8 299.317 259.889 305.188C267.627 311.593 276.043 315.666 284.893 317.285C293.886 318.929 303.89 317.456 312.318 313.239C321.108 308.844 327.548 301.88 330.443 293.661C335.782 278.506 328.518 259.563 313.925 250.544C307.073 246.306 298.817 244.15 290.065 244.279C281.553 244.417 273.177 246.669 265.807 250.818C254.94 256.93 245.936 267.077 240.093 279.491C240.658 280.692 241.265 281.849 241.886 282.992Z" fill="#DAE2E8"/>
<path d="M302.78 404.055L251.559 398.572L262.645 388.025L291.169 398.354L266.738 384.132L266.749 384.122L266.735 384.133L261.854 372.77L272.953 378.22L280.828 370.728L302.78 404.055Z" fill="#DAE2E8"/>
<g filter="url(#filter0_d)">
<circle cx="1176" cy="63" r="33" fill="url(#paint0_linear)"/>
</g>
<defs>
<filter id="filter0_d" x="1083" y="0" width="166" height="166" filterUnits="userSpaceOnUse" color-interpolation-filters="sRGB">
<feFlood flood-opacity="0" result="BackgroundImageFix"/>
<feColorMatrix in="SourceAlpha" type="matrix" values="0 0 0 0 0 0 0 0 0 0 0 0 0 0 0 0 0 0 127 0"/>
<feOffset dx="-10" dy="20"/>
<feGaussianBlur stdDeviation="25"/>
<feColorMatrix type="matrix" values="0 0 0 0 0.47451 0 0 0 0 0.523922 0 0 0 0 0.968627 0 0 0 0.5 0"/>
<feBlend mode="normal" in2="BackgroundImageFix" result="effect1_dropShadow"/>
<feBlend mode="normal" in="SourceGraphic" in2="effect1_dropShadow" result="shape"/>
</filter>
<linearGradient id="paint0_linear" x1="1202.29" y1="45.4781" x2="1176" y2="96" gradientUnits="userSpaceOnUse">
<stop stop-color="#7EB8FB"/>
<stop offset="1" stop-color="#4457FF"/>
</linearGradient>
</defs>
</svg>
